<?xml version="1.0" encoding="UTF-8"?>
<svg id="Layer_1" data-name="Layer 1" xmlns="http://www.w3.org/2000/svg" viewBox="0 0 256 256">
  <defs>
    <style>
      .cls-1 {
        fill: #4b2f17;
      }

      .cls-2 {
        fill: #d89452;
      }
    </style>
  </defs>
  <path class="cls-2" d="M76.26,117.57c1.37-1.37,3.24-2.15,5.18-2.15s3.81.77,5.18,2.15l31.74,31.74,53.83-53.83c2.86-2.86,7.5-2.86,10.36,0l35.25,35.25c8.02-40.85,5.32-87.43-25.25-108.31l-4.33-2.31C134.94-.84,68.46,65.8,46.93,109.79c-7.87,15.52-12.83,32.76-12.6,49.71l41.93-41.93Z"/>
  <path class="cls-1" d="M177.38,111.03l-53.83,53.83c-2.86,2.86-7.5,2.86-10.36,0l-31.74-31.74-43.53,43.53c-.37.37-.77.69-1.2.96,1.9,7.3,4.98,14.4,9.46,21.13,15.81,23.97,48.48,41.39,77.21,41.13,32.74-.17,58.06-22.82,73.32-50.13l4.07-7.62c4.87-9.55,9.45-21.5,13.08-34.61l-36.47-36.47Z"/>
</svg>